<svg xmlns="http://www.w3.org/2000/svg" width="150" height="150" viewBox="0 0 150 150"><rect width="100%" height="100%" fill="#DDDDDD"/><path fill="#999999" d="M36.01 77.93q.7 0 1.25-.24.56-.23.93-.65.38-.43.58-1.03.21-.6.21-1.35v-7.79h2.42v7.79q0 1.16-.38 2.15-.37.98-1.07 1.7-.69.71-1.69 1.11-1 .4-2.25.4-1.26 0-2.26-.4-1-.4-1.7-1.11-.7-.72-1.07-1.7-.37-.99-.37-2.15v-7.79h2.42v7.78q0 .75.2 1.35.2.6.59 1.03.38.43.93.66.56.24 1.26.24Zm13.91-6.29-.5.81q-.09.14-.19.2t-.25.06q-.17 0-.35-.09-.18-.09-.43-.21-.24-.11-.55-.2-.31-.09-.73-.09-.66 0-1.04.28-.37.28-.37.73 0 .3.19.5.2.2.52.35.32.16.72.28.41.12.83.26.41.15.82.33.4.19.72.47.32.28.52.68.19.4.19.95 0 .67-.24 1.23-.24.57-.7.98-.47.4-1.16.63-.69.23-1.59.23-.48 0-.93-.08-.46-.09-.87-.24-.42-.15-.78-.36-.35-.21-.62-.45l.51-.85q.1-.15.23-.23.14-.08.35-.08.2 0 .39.12.18.11.42.25.25.13.58.25.32.12.83.12.39 0 .68-.1.28-.09.47-.25.18-.15.27-.35.08-.2.08-.42 0-.32-.19-.53-.2-.21-.52-.36-.31-.15-.72-.27-.41-.13-.84-.27t-.84-.34q-.41-.19-.73-.49t-.51-.73q-.19-.43-.19-1.04 0-.57.22-1.08.23-.51.66-.9.44-.38 1.09-.61.65-.23 1.51-.23.95 0 1.74.32.78.31 1.3.82Zm3.53 2.56h4.19q0-.43-.12-.81-.12-.39-.36-.67-.25-.29-.62-.46-.37-.17-.87-.17-.96 0-1.51.55-.56.55-.71 1.56Zm5.67 1.34H53.4q.06.71.26 1.23.19.52.52.86.32.33.77.5.44.17.98.17t.93-.13q.4-.13.69-.28.29-.15.51-.28.22-.12.43-.12.28 0 .41.2l.64.81q-.37.43-.83.73-.45.29-.95.47-.5.17-1.02.24-.52.08-1 .08-.97 0-1.8-.32-.82-.32-1.44-.95-.61-.63-.96-1.55t-.35-2.14q0-.94.31-1.77.3-.84.87-1.45.58-.62 1.4-.98t1.86-.36q.87 0 1.61.28.74.28 1.27.82.53.53.83 1.31.3.78.3 1.78 0 .5-.11.68-.1.17-.41.17Zm4.15-4.34.13 1.05q.44-.83 1.03-1.3.59-.48 1.4-.48.64 0 1.03.28l-.14 1.67q-.05.16-.13.23-.09.07-.23.07t-.4-.05q-.27-.04-.52-.04-.37 0-.66.1-.29.11-.52.31-.23.21-.4.49-.18.29-.33.66v5.69h-2.22v-9.23h1.3q.34 0 .48.12.13.12.18.43Zm11.91-4.33v13.01h-2.43V66.87h2.43Zm4.77 13.01h-2.22v-9.23h1.36q.43 0 .57.4l.14.68q.24-.27.51-.49.27-.23.57-.39.3-.16.65-.25.34-.1.76-.1.87 0 1.43.47.56.48.84 1.26.22-.46.54-.79.33-.33.71-.53.39-.21.83-.31.43-.1.87-.1.77 0 1.36.24.6.23 1 .68.41.45.62 1.1.21.65.21 1.48v5.88h-2.22V74q0-.88-.39-1.32-.39-.45-1.13-.45-.35 0-.64.12-.29.11-.51.33-.22.22-.35.56-.12.33-.12.76v5.88H83.1V74q0-.92-.37-1.35-.37-.42-1.09-.42-.49 0-.91.24-.42.24-.78.65v6.76Zm17.73-2.39v-1.55q-.96.04-1.62.16-.65.13-1.05.31-.39.19-.57.45-.17.25-.17.54 0 .59.35.84t.9.25q.69 0 1.19-.24.5-.25.97-.76Zm-4.69-4.85-.4-.71q1.59-1.46 3.83-1.46.81 0 1.45.27.64.27 1.08.74.44.47.67 1.13.23.65.23 1.44v5.83h-1q-.32 0-.49-.09-.17-.1-.27-.39l-.2-.66q-.35.31-.68.55-.34.24-.7.4-.36.16-.76.25-.41.08-.91.08-.58 0-1.08-.15-.49-.16-.85-.48-.36-.31-.56-.78-.2-.47-.2-1.09 0-.35.12-.7.11-.34.38-.66.26-.31.69-.59.42-.28 1.04-.49.61-.2 1.43-.33.82-.14 1.87-.16v-.54q0-.93-.39-1.37-.4-.45-1.14-.45-.54 0-.9.13-.36.12-.63.28-.27.16-.49.28-.22.13-.49.13-.23 0-.39-.12t-.26-.29Zm12.33 2.4q.41 0 .72-.11.3-.12.51-.32.2-.19.3-.47.1-.28.1-.61 0-.69-.4-1.09-.41-.4-1.23-.4-.82 0-1.23.4-.41.4-.41 1.09 0 .32.1.6.11.28.31.48.2.2.51.32.31.11.72.11Zm2.51 5.25q0-.27-.16-.44-.17-.17-.45-.26-.27-.1-.65-.14-.37-.05-.79-.07l-.86-.04q-.45-.02-.87-.07-.37.2-.6.48-.23.28-.23.65 0 .25.12.46.12.21.39.36.26.15.69.24.42.09 1.03.09.62 0 1.07-.1.45-.09.75-.26.29-.17.42-.4.14-.23.14-.5Zm-.44-9.33h2.65v.83q0 .39-.48.48l-.82.16q.19.47.19 1.04 0 .69-.28 1.24-.27.55-.76.94-.49.39-1.15.6-.66.21-1.42.21-.27 0-.53-.03-.25-.02-.49-.07-.43.26-.43.59 0 .27.25.41.26.13.68.18.43.05.97.07.54.01 1.1.06.57.04 1.11.15.54.12.96.36.43.24.68.66.26.42.26 1.08 0 .61-.3 1.18-.3.58-.87 1.03-.58.45-1.41.72-.83.28-1.89.28-1.05 0-1.82-.2-.78-.21-1.29-.54-.51-.34-.76-.78-.26-.44-.26-.92 0-.65.4-1.08.39-.44 1.07-.7-.37-.19-.58-.51-.22-.31-.22-.82 0-.21.08-.43.07-.22.22-.44.15-.21.38-.41.22-.19.53-.34-.71-.38-1.11-1.01-.4-.63-.4-1.48 0-.68.28-1.24.27-.55.76-.94.49-.39 1.16-.6.67-.21 1.47-.21.59 0 1.11.13.52.12.96.35Zm5.81 3.24h4.19q0-.43-.12-.81-.12-.39-.36-.67-.24-.29-.62-.46-.37-.17-.87-.17-.96 0-1.51.55-.56.55-.71 1.56Zm5.67 1.34h-5.71q.05.71.25 1.23t.52.86q.32.33.77.5.44.17.98.17t.94-.13q.39-.13.68-.28.29-.15.51-.28.22-.12.43-.12.28 0 .41.2l.64.81q-.37.43-.82.73-.46.29-.96.47-.5.17-1.02.24-.52.08-1 .08-.97 0-1.79-.32-.83-.32-1.44-.95-.62-.63-.97-1.55t-.35-2.14q0-.94.31-1.77.3-.84.88-1.45.57-.62 1.39-.98t1.86-.36q.87 0 1.61.28.74.28 1.27.82.53.53.83 1.31.3.78.3 1.78 0 .5-.11.68-.1.17-.41.17Z"/></svg>