<svg xmlns="http://www.w3.org/2000/svg" width="300" height="300" viewBox="0 0 300 300"><rect width="100%" height="100%" fill="#DDDDDD"/><path fill="#999999" d="M72.01 155.855q1.41 0 2.52-.46 1.1-.47 1.86-1.32.75-.84 1.16-2.05.4-1.21.4-2.7v-15.59h4.85v15.59q0 2.32-.75 4.29-.75 1.97-2.14 3.4-1.4 1.44-3.4 2.24-1.99.8-4.5.8-2.52 0-4.51-.8-2-.8-3.4-2.24-1.39-1.43-2.14-3.4-.75-1.97-.75-4.29v-15.59h4.85v15.57q0 1.5.4 2.7.41 1.21 1.17 2.06.77.86 1.87 1.33 1.11.46 2.51.46Zm27.83-12.56-1.01 1.6q-.18.29-.37.41-.2.11-.51.11-.32 0-.69-.18-.37-.18-.86-.4-.48-.23-1.1-.41-.62-.18-1.47-.18-1.31 0-2.06.56t-.75 1.46q0 .59.39 1 .39.4 1.03.71.63.31 1.44.55.81.24 1.65.53.84.29 1.65.66.81.37 1.45.93.64.57 1.02 1.36.39.79.39 1.91 0 1.33-.48 2.46-.47 1.12-1.41 1.94-.94.82-2.31 1.28-1.38.46-3.18.46-.95 0-1.86-.17-.91-.17-1.75-.48-.84-.31-1.55-.72-.71-.41-1.25-.9l1.03-1.69q.2-.31.47-.47.27-.16.68-.16.41 0 .78.23.37.24.86.51.48.27 1.14.5.66.23 1.67.23.79 0 1.36-.19.56-.18.93-.49t.54-.71q.17-.41.17-.84 0-.65-.38-1.06-.39-.41-1.03-.72t-1.46-.55q-.82-.24-1.67-.53-.86-.29-1.68-.68-.82-.38-1.45-.98-.64-.59-1.03-1.45-.39-.87-.39-2.09 0-1.14.45-2.16.45-1.03 1.33-1.79.87-.77 2.17-1.23 1.31-.46 3.02-.46 1.91 0 3.47.63 1.57.63 2.61 1.66Zm7.06 5.11h8.39q0-.86-.25-1.63-.24-.76-.73-1.34-.48-.57-1.23-.91-.75-.33-1.74-.33-1.92 0-3.03 1.1-1.11 1.1-1.41 3.11Zm11.34 2.68h-11.43q.11 1.43.5 2.46.4 1.04 1.05 1.71.64.68 1.54 1.01.89.33 1.97.33t1.86-.25q.78-.25 1.37-.56.58-.3 1.02-.56.44-.25.86-.25.56 0 .83.42l1.27 1.62q-.73.86-1.65 1.44-.92.59-1.92.94-1 .35-2.03.5-1.04.14-2.01.14-1.92 0-3.58-.64-1.66-.64-2.88-1.89-1.23-1.25-1.93-3.1-.7-1.84-.7-4.27 0-1.89.61-3.56.61-1.66 1.76-2.89 1.14-1.24 2.79-1.96 1.65-.72 3.71-.72 1.75 0 3.23.56 1.47.56 2.53 1.63 1.07 1.07 1.67 2.63.6 1.56.6 3.55 0 1.01-.21 1.36-.22.35-.83.35Zm8.3-8.67.27 2.09q.86-1.66 2.05-2.61 1.19-.94 2.81-.94 1.28 0 2.05.56l-.29 3.33q-.09.32-.26.46-.17.13-.46.13-.27 0-.8-.09t-1.03-.09q-.74 0-1.32.22-.57.21-1.03.62-.46.4-.81.98-.35.58-.66 1.31v11.38h-4.45v-18.47h2.61q.69 0 .96.24.27.25.36.88Zm23.81-8.68v26.03h-4.86v-26.03h4.86Zm9.56 26.03h-4.45v-18.47h2.72q.87 0 1.14.81l.28 1.37q.49-.54 1.02-.99.53-.45 1.13-.77.61-.33 1.3-.52.69-.19 1.52-.19 1.75 0 2.87.95 1.13.94 1.69 2.51.43-.92 1.08-1.58.64-.65 1.42-1.07.77-.41 1.64-.61.88-.2 1.76-.2 1.53 0 2.72.47 1.19.47 2 1.37.81.9 1.23 2.2.42 1.29.42 2.97v11.75h-4.44v-11.75q0-1.77-.78-2.66-.77-.89-2.27-.89-.68 0-1.27.23-.58.24-1.02.68-.44.44-.69 1.11-.26.66-.26 1.53v11.75h-4.46v-11.75q0-1.86-.75-2.7-.74-.85-2.18-.85-.98 0-1.81.48-.84.47-1.56 1.3v13.52Zm35.46-4.77v-3.11q-1.93.09-3.24.33-1.31.24-2.11.62-.79.38-1.13.88-.34.51-.34 1.1 0 1.17.69 1.67.69.51 1.81.51 1.37 0 2.37-.5 1-.49 1.95-1.5Zm-9.4-9.7-.79-1.42q3.19-2.92 7.67-2.92 1.62 0 2.9.53 1.28.53 2.16 1.48.88.94 1.34 2.26.46 1.31.46 2.88v11.66h-2.02q-.63 0-.97-.19-.34-.19-.54-.76l-.4-1.34q-.7.63-1.36 1.11-.67.48-1.39.8-.72.33-1.54.5-.82.17-1.81.17-1.17 0-2.16-.32-.99-.31-1.71-.94-.72-.63-1.11-1.57-.4-.93-.4-2.18 0-.7.23-1.39.24-.69.77-1.32.53-.63 1.38-1.19.84-.56 2.07-.97 1.24-.42 2.88-.68 1.63-.26 3.74-.31v-1.08q0-1.86-.79-2.75-.79-.89-2.29-.89-1.08 0-1.79.25t-1.25.57q-.54.31-.98.57-.44.25-.98.25-.47 0-.79-.25-.33-.24-.53-.56Zm24.66 4.79q.83 0 1.44-.23.62-.22 1.02-.62.41-.4.61-.95.21-.56.21-1.23 0-1.37-.82-2.17-.82-.8-2.46-.8-1.63 0-2.45.8-.82.8-.82 2.17 0 .65.2 1.21.21.56.62.96.4.41 1.02.63.62.23 1.43.23Zm5.03 10.51q0-.54-.33-.88-.32-.35-.88-.54-.56-.18-1.31-.27-.74-.09-1.58-.14-.84-.04-1.73-.08t-1.73-.14q-.74.41-1.2.97-.46.56-.46 1.29 0 .49.24.91.25.43.78.73.53.31 1.37.48.85.17 2.07.17 1.25 0 2.15-.19.9-.19 1.48-.52.59-.33.86-.79t.27-1Zm-.89-18.67h5.31v1.66q0 .79-.95.97l-1.66.31q.38.95.38 2.08 0 1.37-.55 2.48-.55 1.11-1.52 1.88-.97.77-2.29 1.2-1.33.42-2.86.42-.54 0-1.04-.05-.5-.06-.99-.15-.86.52-.86 1.17 0 .56.51.82.51.26 1.36.37.84.11 1.92.13 1.08.03 2.22.12 1.13.09 2.21.32 1.08.22 1.93.71.84.48 1.36 1.32.51.84.51 2.15 0 1.23-.6 2.38-.61 1.15-1.75 2.05-1.14.9-2.81 1.45-1.66.55-3.79.55-2.08 0-3.63-.41-1.55-.4-2.58-1.08-1.02-.67-1.53-1.55-.5-.89-.5-1.84 0-1.3.78-2.17.79-.87 2.15-1.39-.73-.38-1.17-1.01-.43-.63-.43-1.66 0-.41.15-.85.16-.44.45-.88.3-.43.75-.82.45-.38 1.06-.69-1.4-.75-2.2-2.01-.8-1.26-.8-2.96 0-1.36.55-2.47t1.53-1.89q.98-.78 2.32-1.2 1.34-.41 2.92-.41 1.19 0 2.24.24 1.04.24 1.9.71Zm11.63 6.48h8.39q0-.86-.24-1.63-.25-.76-.73-1.34-.49-.57-1.24-.91-.74-.33-1.73-.33-1.93 0-3.04 1.1-1.1 1.1-1.41 3.11Zm11.34 2.68h-11.43q.11 1.43.51 2.46.39 1.04 1.04 1.71.65.68 1.54 1.01.89.33 1.97.33t1.86-.25q.79-.25 1.37-.56.59-.3 1.03-.56.44-.25.85-.25.56 0 .83.42l1.28 1.62q-.74.86-1.66 1.44-.92.59-1.92.94-.99.35-2.03.5-1.03.14-2.01.14-1.92 0-3.58-.64-1.65-.64-2.88-1.89-1.22-1.25-1.92-3.1-.71-1.84-.71-4.27 0-1.89.62-3.56.61-1.66 1.75-2.89 1.14-1.24 2.79-1.96 1.65-.72 3.72-.72 1.74 0 3.22.56 1.48.56 2.54 1.63 1.06 1.07 1.66 2.63.61 1.56.61 3.55 0 1.01-.22 1.36-.22.35-.83.35Z"/></svg>